# xmcd CD database file
#
# Track frame offsets:
#        150
#        20953
#        40587
#        70436
#        87078
#        107498
#        125250
#        143229
#        144873
#        161354
#        180473
#        201468
#
# Disc length: 3001 seconds
#
# Revision: 0
# Processed by: cddbd v1.5.2PL0 Copyright (c) Steve Scherf et al.
# Submitted via: CUERipper 2.1.5
#
DISCID=a10bb70c
DTITLE=Various Artist - Soul Fixin' Live From Tx.
DYEAR=2007
DGENRE=
TTITLE0=The Shane Henry Band - Looking Glass
TTITLE1=The Shane Henry Band - Deliverance
TTITLE2=Albert Cummings - Long Way
TTITLE3=Albert Cummings - I've Got Feelings Too
TTITLE4=The Renee Austin Band - You Are Not Alone
TTITLE5=The Renee Austin Band - When Something Is Wrong
TTITLE6=The Renee Austin Band - Pour The Sugar Slowly
TTITLE7=Randy McDonald - Junior Watson's Intro
TTITLE8=Junior Watson - Straighten Up
TTITLE9=Junior Watson - If I Had A Genie
TTITLE10=The Tommy Castro Band - You Only Go Around Once
TTITLE11=The Tommy Castro Band - Nasty Habits
EXTD=
EXTT0=
EXTT1=
EXTT2=
EXTT3=
EXTT4=
EXTT5=
EXTT6=
EXTT7=
EXTT8=
EXTT9=
EXTT10=
EXTT11=
PLAYORDER=
